<mxfile host="app.diagrams.net" modified="2024-04-18T01:25:41.361Z" agent="Mozilla/5.0 (Windows NT 10.0; Win64; x64) AppleWebKit/537.36 (KHTML, like Gecko) Chrome/121.0.0.0 Safari/537.36 OPR/107.0.0.0" etag="_hOZxOU_Zfxn3ShfPPlJ" version="23.1.4" type="github">
  <diagram name="PÃ¡gina-1" id="rRy8zPCkfIXacyhroKcl">
    <mxGraphModel dx="1525" dy="665" grid="1" gridSize="10" guides="1" tooltips="1" connect="1" arrows="1" fold="1" page="1" pageScale="1" pageWidth="850" pageHeight="1400" math="0" shadow="0">
      <root>
        <mxCell id="0" />
        <mxCell id="1" parent="0" />
        <mxCell id="x2yAiirY8YBwsF6zMrOJ-9" value="Clientes" style="shape=table;startSize=30;container=1;collapsible=0;childLayout=tableLayout;fixedRows=1;rowLines=0;fontStyle=0;fontSize=16;labelBackgroundColor=none;" vertex="1" parent="1">
          <mxGeometry x="50" y="260" width="180" height="150" as="geometry" />
        </mxCell>
        <mxCell id="x2yAiirY8YBwsF6zMrOJ-10" value="" style="shape=tableRow;horizontal=0;startSize=0;swimlaneHead=0;swimlaneBody=0;top=0;left=0;bottom=0;right=0;collapsible=0;dropTarget=0;fillColor=none;points=[[0,0.5],[1,0.5]];portConstraint=eastwest;fontSize=16;labelBackgroundColor=none;" vertex="1" parent="x2yAiirY8YBwsF6zMrOJ-9">
          <mxGeometry y="30" width="180" height="30" as="geometry" />
        </mxCell>
        <mxCell id="x2yAiirY8YBwsF6zMrOJ-11" value="" style="shape=partialRectangle;html=1;whiteSpace=wrap;connectable=0;fillColor=none;top=0;left=0;bottom=0;right=0;overflow=hidden;pointerEvents=1;fontSize=16;labelBackgroundColor=none;" vertex="1" parent="x2yAiirY8YBwsF6zMrOJ-10">
          <mxGeometry width="40" height="30" as="geometry">
            <mxRectangle width="40" height="30" as="alternateBounds" />
          </mxGeometry>
        </mxCell>
        <mxCell id="x2yAiirY8YBwsF6zMrOJ-12" value="Id_Clientes" style="shape=partialRectangle;html=1;whiteSpace=wrap;connectable=0;fillColor=none;top=0;left=0;bottom=0;right=0;align=left;spacingLeft=6;overflow=hidden;fontSize=16;labelBackgroundColor=none;" vertex="1" parent="x2yAiirY8YBwsF6zMrOJ-10">
          <mxGeometry x="40" width="140" height="30" as="geometry">
            <mxRectangle width="140" height="30" as="alternateBounds" />
          </mxGeometry>
        </mxCell>
        <mxCell id="x2yAiirY8YBwsF6zMrOJ-13" value="" style="shape=tableRow;horizontal=0;startSize=0;swimlaneHead=0;swimlaneBody=0;top=0;left=0;bottom=0;right=0;collapsible=0;dropTarget=0;fillColor=none;points=[[0,0.5],[1,0.5]];portConstraint=eastwest;fontSize=16;labelBackgroundColor=none;" vertex="1" parent="x2yAiirY8YBwsF6zMrOJ-9">
          <mxGeometry y="60" width="180" height="30" as="geometry" />
        </mxCell>
        <mxCell id="x2yAiirY8YBwsF6zMrOJ-14" value="" style="shape=partialRectangle;html=1;whiteSpace=wrap;connectable=0;fillColor=none;top=0;left=0;bottom=0;right=0;overflow=hidden;fontSize=16;labelBackgroundColor=none;" vertex="1" parent="x2yAiirY8YBwsF6zMrOJ-13">
          <mxGeometry width="40" height="30" as="geometry">
            <mxRectangle width="40" height="30" as="alternateBounds" />
          </mxGeometry>
        </mxCell>
        <mxCell id="x2yAiirY8YBwsF6zMrOJ-15" value="Nombre" style="shape=partialRectangle;html=1;whiteSpace=wrap;connectable=0;fillColor=none;top=0;left=0;bottom=0;right=0;align=left;spacingLeft=6;overflow=hidden;fontSize=16;labelBackgroundColor=none;" vertex="1" parent="x2yAiirY8YBwsF6zMrOJ-13">
          <mxGeometry x="40" width="140" height="30" as="geometry">
            <mxRectangle width="140" height="30" as="alternateBounds" />
          </mxGeometry>
        </mxCell>
        <mxCell id="x2yAiirY8YBwsF6zMrOJ-16" value="" style="shape=tableRow;horizontal=0;startSize=0;swimlaneHead=0;swimlaneBody=0;top=0;left=0;bottom=0;right=0;collapsible=0;dropTarget=0;fillColor=none;points=[[0,0.5],[1,0.5]];portConstraint=eastwest;fontSize=16;labelBackgroundColor=none;" vertex="1" parent="x2yAiirY8YBwsF6zMrOJ-9">
          <mxGeometry y="90" width="180" height="30" as="geometry" />
        </mxCell>
        <mxCell id="x2yAiirY8YBwsF6zMrOJ-17" value="" style="shape=partialRectangle;html=1;whiteSpace=wrap;connectable=0;fillColor=none;top=0;left=0;bottom=0;right=0;overflow=hidden;fontSize=16;labelBackgroundColor=none;" vertex="1" parent="x2yAiirY8YBwsF6zMrOJ-16">
          <mxGeometry width="40" height="30" as="geometry">
            <mxRectangle width="40" height="30" as="alternateBounds" />
          </mxGeometry>
        </mxCell>
        <mxCell id="x2yAiirY8YBwsF6zMrOJ-18" value="Direccion" style="shape=partialRectangle;html=1;whiteSpace=wrap;connectable=0;fillColor=none;top=0;left=0;bottom=0;right=0;align=left;spacingLeft=6;overflow=hidden;fontSize=16;labelBackgroundColor=none;" vertex="1" parent="x2yAiirY8YBwsF6zMrOJ-16">
          <mxGeometry x="40" width="140" height="30" as="geometry">
            <mxRectangle width="140" height="30" as="alternateBounds" />
          </mxGeometry>
        </mxCell>
        <mxCell id="x2yAiirY8YBwsF6zMrOJ-19" value="Telefono" style="shape=partialRectangle;html=1;whiteSpace=wrap;connectable=0;fillColor=none;top=0;left=0;bottom=0;right=0;align=left;spacingLeft=6;overflow=hidden;fontSize=16;labelBackgroundColor=none;" vertex="1" parent="1">
          <mxGeometry x="90" y="380" width="140" height="30" as="geometry">
            <mxRectangle width="140" height="30" as="alternateBounds" />
          </mxGeometry>
        </mxCell>
        <mxCell id="x2yAiirY8YBwsF6zMrOJ-20" value="Empleados" style="shape=table;startSize=30;container=1;collapsible=0;childLayout=tableLayout;fixedRows=1;rowLines=0;fontStyle=0;fontSize=16;labelBackgroundColor=none;" vertex="1" parent="1">
          <mxGeometry x="260" y="260" width="180" height="160" as="geometry" />
        </mxCell>
        <mxCell id="x2yAiirY8YBwsF6zMrOJ-21" value="" style="shape=tableRow;horizontal=0;startSize=0;swimlaneHead=0;swimlaneBody=0;top=0;left=0;bottom=0;right=0;collapsible=0;dropTarget=0;fillColor=none;points=[[0,0.5],[1,0.5]];portConstraint=eastwest;fontSize=16;labelBackgroundColor=none;" vertex="1" parent="x2yAiirY8YBwsF6zMrOJ-20">
          <mxGeometry y="30" width="180" height="30" as="geometry" />
        </mxCell>
        <mxCell id="x2yAiirY8YBwsF6zMrOJ-22" value="" style="shape=partialRectangle;html=1;whiteSpace=wrap;connectable=0;fillColor=none;top=0;left=0;bottom=0;right=0;overflow=hidden;pointerEvents=1;fontSize=16;labelBackgroundColor=none;" vertex="1" parent="x2yAiirY8YBwsF6zMrOJ-21">
          <mxGeometry width="40" height="30" as="geometry">
            <mxRectangle width="40" height="30" as="alternateBounds" />
          </mxGeometry>
        </mxCell>
        <mxCell id="x2yAiirY8YBwsF6zMrOJ-23" value="Id_Empleados" style="shape=partialRectangle;html=1;whiteSpace=wrap;connectable=0;fillColor=none;top=0;left=0;bottom=0;right=0;align=left;spacingLeft=6;overflow=hidden;fontSize=16;labelBackgroundColor=none;" vertex="1" parent="x2yAiirY8YBwsF6zMrOJ-21">
          <mxGeometry x="40" width="140" height="30" as="geometry">
            <mxRectangle width="140" height="30" as="alternateBounds" />
          </mxGeometry>
        </mxCell>
        <mxCell id="x2yAiirY8YBwsF6zMrOJ-24" value="" style="shape=tableRow;horizontal=0;startSize=0;swimlaneHead=0;swimlaneBody=0;top=0;left=0;bottom=0;right=0;collapsible=0;dropTarget=0;fillColor=none;points=[[0,0.5],[1,0.5]];portConstraint=eastwest;fontSize=16;labelBackgroundColor=none;" vertex="1" parent="x2yAiirY8YBwsF6zMrOJ-20">
          <mxGeometry y="60" width="180" height="30" as="geometry" />
        </mxCell>
        <mxCell id="x2yAiirY8YBwsF6zMrOJ-25" value="" style="shape=partialRectangle;html=1;whiteSpace=wrap;connectable=0;fillColor=none;top=0;left=0;bottom=0;right=0;overflow=hidden;fontSize=16;labelBackgroundColor=none;" vertex="1" parent="x2yAiirY8YBwsF6zMrOJ-24">
          <mxGeometry width="40" height="30" as="geometry">
            <mxRectangle width="40" height="30" as="alternateBounds" />
          </mxGeometry>
        </mxCell>
        <mxCell id="x2yAiirY8YBwsF6zMrOJ-26" value="Nombre" style="shape=partialRectangle;html=1;whiteSpace=wrap;connectable=0;fillColor=none;top=0;left=0;bottom=0;right=0;align=left;spacingLeft=6;overflow=hidden;fontSize=16;labelBackgroundColor=none;" vertex="1" parent="x2yAiirY8YBwsF6zMrOJ-24">
          <mxGeometry x="40" width="140" height="30" as="geometry">
            <mxRectangle width="140" height="30" as="alternateBounds" />
          </mxGeometry>
        </mxCell>
        <mxCell id="x2yAiirY8YBwsF6zMrOJ-27" value="" style="shape=tableRow;horizontal=0;startSize=0;swimlaneHead=0;swimlaneBody=0;top=0;left=0;bottom=0;right=0;collapsible=0;dropTarget=0;fillColor=none;points=[[0,0.5],[1,0.5]];portConstraint=eastwest;fontSize=16;labelBackgroundColor=none;" vertex="1" parent="x2yAiirY8YBwsF6zMrOJ-20">
          <mxGeometry y="90" width="180" height="30" as="geometry" />
        </mxCell>
        <mxCell id="x2yAiirY8YBwsF6zMrOJ-28" value="" style="shape=partialRectangle;html=1;whiteSpace=wrap;connectable=0;fillColor=none;top=0;left=0;bottom=0;right=0;overflow=hidden;fontSize=16;labelBackgroundColor=none;" vertex="1" parent="x2yAiirY8YBwsF6zMrOJ-27">
          <mxGeometry width="40" height="30" as="geometry">
            <mxRectangle width="40" height="30" as="alternateBounds" />
          </mxGeometry>
        </mxCell>
        <mxCell id="x2yAiirY8YBwsF6zMrOJ-29" value="Posicion" style="shape=partialRectangle;html=1;whiteSpace=wrap;connectable=0;fillColor=none;top=0;left=0;bottom=0;right=0;align=left;spacingLeft=6;overflow=hidden;fontSize=16;labelBackgroundColor=none;" vertex="1" parent="x2yAiirY8YBwsF6zMrOJ-27">
          <mxGeometry x="40" width="140" height="30" as="geometry">
            <mxRectangle width="140" height="30" as="alternateBounds" />
          </mxGeometry>
        </mxCell>
        <mxCell id="x2yAiirY8YBwsF6zMrOJ-30" value="Salario" style="shape=partialRectangle;html=1;whiteSpace=wrap;connectable=0;fillColor=none;top=0;left=0;bottom=0;right=0;align=left;spacingLeft=6;overflow=hidden;fontSize=16;labelBackgroundColor=none;" vertex="1" parent="1">
          <mxGeometry x="300" y="380" width="140" height="30" as="geometry">
            <mxRectangle width="140" height="30" as="alternateBounds" />
          </mxGeometry>
        </mxCell>
        <mxCell id="x2yAiirY8YBwsF6zMrOJ-31" value="Vehiculos" style="shape=table;startSize=30;container=1;collapsible=0;childLayout=tableLayout;fixedRows=1;rowLines=0;fontStyle=0;fontSize=16;labelBackgroundColor=none;" vertex="1" parent="1">
          <mxGeometry x="470" y="260" width="180" height="130" as="geometry" />
        </mxCell>
        <mxCell id="x2yAiirY8YBwsF6zMrOJ-32" value="" style="shape=tableRow;horizontal=0;startSize=0;swimlaneHead=0;swimlaneBody=0;top=0;left=0;bottom=0;right=0;collapsible=0;dropTarget=0;fillColor=none;points=[[0,0.5],[1,0.5]];portConstraint=eastwest;fontSize=16;labelBackgroundColor=none;" vertex="1" parent="x2yAiirY8YBwsF6zMrOJ-31">
          <mxGeometry y="30" width="180" height="30" as="geometry" />
        </mxCell>
        <mxCell id="x2yAiirY8YBwsF6zMrOJ-33" value="" style="shape=partialRectangle;html=1;whiteSpace=wrap;connectable=0;fillColor=none;top=0;left=0;bottom=0;right=0;overflow=hidden;pointerEvents=1;fontSize=16;labelBackgroundColor=none;" vertex="1" parent="x2yAiirY8YBwsF6zMrOJ-32">
          <mxGeometry width="40" height="30" as="geometry">
            <mxRectangle width="40" height="30" as="alternateBounds" />
          </mxGeometry>
        </mxCell>
        <mxCell id="x2yAiirY8YBwsF6zMrOJ-34" value="Id_Vehiculo" style="shape=partialRectangle;html=1;whiteSpace=wrap;connectable=0;fillColor=none;top=0;left=0;bottom=0;right=0;align=left;spacingLeft=6;overflow=hidden;fontSize=16;labelBackgroundColor=none;" vertex="1" parent="x2yAiirY8YBwsF6zMrOJ-32">
          <mxGeometry x="40" width="140" height="30" as="geometry">
            <mxRectangle width="140" height="30" as="alternateBounds" />
          </mxGeometry>
        </mxCell>
        <mxCell id="x2yAiirY8YBwsF6zMrOJ-35" value="" style="shape=tableRow;horizontal=0;startSize=0;swimlaneHead=0;swimlaneBody=0;top=0;left=0;bottom=0;right=0;collapsible=0;dropTarget=0;fillColor=none;points=[[0,0.5],[1,0.5]];portConstraint=eastwest;fontSize=16;labelBackgroundColor=none;" vertex="1" parent="x2yAiirY8YBwsF6zMrOJ-31">
          <mxGeometry y="60" width="180" height="30" as="geometry" />
        </mxCell>
        <mxCell id="x2yAiirY8YBwsF6zMrOJ-36" value="" style="shape=partialRectangle;html=1;whiteSpace=wrap;connectable=0;fillColor=none;top=0;left=0;bottom=0;right=0;overflow=hidden;fontSize=16;labelBackgroundColor=none;" vertex="1" parent="x2yAiirY8YBwsF6zMrOJ-35">
          <mxGeometry width="40" height="30" as="geometry">
            <mxRectangle width="40" height="30" as="alternateBounds" />
          </mxGeometry>
        </mxCell>
        <mxCell id="x2yAiirY8YBwsF6zMrOJ-37" value="Tipo" style="shape=partialRectangle;html=1;whiteSpace=wrap;connectable=0;fillColor=none;top=0;left=0;bottom=0;right=0;align=left;spacingLeft=6;overflow=hidden;fontSize=16;labelBackgroundColor=none;" vertex="1" parent="x2yAiirY8YBwsF6zMrOJ-35">
          <mxGeometry x="40" width="140" height="30" as="geometry">
            <mxRectangle width="140" height="30" as="alternateBounds" />
          </mxGeometry>
        </mxCell>
        <mxCell id="x2yAiirY8YBwsF6zMrOJ-38" value="" style="shape=tableRow;horizontal=0;startSize=0;swimlaneHead=0;swimlaneBody=0;top=0;left=0;bottom=0;right=0;collapsible=0;dropTarget=0;fillColor=none;points=[[0,0.5],[1,0.5]];portConstraint=eastwest;fontSize=16;labelBackgroundColor=none;" vertex="1" parent="x2yAiirY8YBwsF6zMrOJ-31">
          <mxGeometry y="90" width="180" height="30" as="geometry" />
        </mxCell>
        <mxCell id="x2yAiirY8YBwsF6zMrOJ-39" value="" style="shape=partialRectangle;html=1;whiteSpace=wrap;connectable=0;fillColor=none;top=0;left=0;bottom=0;right=0;overflow=hidden;fontSize=16;labelBackgroundColor=none;" vertex="1" parent="x2yAiirY8YBwsF6zMrOJ-38">
          <mxGeometry width="40" height="30" as="geometry">
            <mxRectangle width="40" height="30" as="alternateBounds" />
          </mxGeometry>
        </mxCell>
        <mxCell id="x2yAiirY8YBwsF6zMrOJ-40" value="Capacidad" style="shape=partialRectangle;html=1;whiteSpace=wrap;connectable=0;fillColor=none;top=0;left=0;bottom=0;right=0;align=left;spacingLeft=6;overflow=hidden;fontSize=16;labelBackgroundColor=none;" vertex="1" parent="x2yAiirY8YBwsF6zMrOJ-38">
          <mxGeometry x="40" width="140" height="30" as="geometry">
            <mxRectangle width="140" height="30" as="alternateBounds" />
          </mxGeometry>
        </mxCell>
        <mxCell id="x2yAiirY8YBwsF6zMrOJ-41" value="Rutas" style="shape=table;startSize=30;container=1;collapsible=0;childLayout=tableLayout;fixedRows=1;rowLines=0;fontStyle=0;fontSize=16;labelBackgroundColor=none;" vertex="1" parent="1">
          <mxGeometry x="50" y="450" width="180" height="160" as="geometry" />
        </mxCell>
        <mxCell id="x2yAiirY8YBwsF6zMrOJ-42" value="" style="shape=tableRow;horizontal=0;startSize=0;swimlaneHead=0;swimlaneBody=0;top=0;left=0;bottom=0;right=0;collapsible=0;dropTarget=0;fillColor=none;points=[[0,0.5],[1,0.5]];portConstraint=eastwest;fontSize=16;labelBackgroundColor=none;" vertex="1" parent="x2yAiirY8YBwsF6zMrOJ-41">
          <mxGeometry y="30" width="180" height="30" as="geometry" />
        </mxCell>
        <mxCell id="x2yAiirY8YBwsF6zMrOJ-43" value="" style="shape=partialRectangle;html=1;whiteSpace=wrap;connectable=0;fillColor=none;top=0;left=0;bottom=0;right=0;overflow=hidden;pointerEvents=1;fontSize=16;labelBackgroundColor=none;" vertex="1" parent="x2yAiirY8YBwsF6zMrOJ-42">
          <mxGeometry width="40" height="30" as="geometry">
            <mxRectangle width="40" height="30" as="alternateBounds" />
          </mxGeometry>
        </mxCell>
        <mxCell id="x2yAiirY8YBwsF6zMrOJ-44" value="Id_Ruta" style="shape=partialRectangle;html=1;whiteSpace=wrap;connectable=0;fillColor=none;top=0;left=0;bottom=0;right=0;align=left;spacingLeft=6;overflow=hidden;fontSize=16;labelBackgroundColor=none;" vertex="1" parent="x2yAiirY8YBwsF6zMrOJ-42">
          <mxGeometry x="40" width="140" height="30" as="geometry">
            <mxRectangle width="140" height="30" as="alternateBounds" />
          </mxGeometry>
        </mxCell>
        <mxCell id="x2yAiirY8YBwsF6zMrOJ-45" value="" style="shape=tableRow;horizontal=0;startSize=0;swimlaneHead=0;swimlaneBody=0;top=0;left=0;bottom=0;right=0;collapsible=0;dropTarget=0;fillColor=none;points=[[0,0.5],[1,0.5]];portConstraint=eastwest;fontSize=16;labelBackgroundColor=none;" vertex="1" parent="x2yAiirY8YBwsF6zMrOJ-41">
          <mxGeometry y="60" width="180" height="30" as="geometry" />
        </mxCell>
        <mxCell id="x2yAiirY8YBwsF6zMrOJ-46" value="" style="shape=partialRectangle;html=1;whiteSpace=wrap;connectable=0;fillColor=none;top=0;left=0;bottom=0;right=0;overflow=hidden;fontSize=16;labelBackgroundColor=none;" vertex="1" parent="x2yAiirY8YBwsF6zMrOJ-45">
          <mxGeometry width="40" height="30" as="geometry">
            <mxRectangle width="40" height="30" as="alternateBounds" />
          </mxGeometry>
        </mxCell>
        <mxCell id="x2yAiirY8YBwsF6zMrOJ-47" value="Origen" style="shape=partialRectangle;html=1;whiteSpace=wrap;connectable=0;fillColor=none;top=0;left=0;bottom=0;right=0;align=left;spacingLeft=6;overflow=hidden;fontSize=16;labelBackgroundColor=none;" vertex="1" parent="x2yAiirY8YBwsF6zMrOJ-45">
          <mxGeometry x="40" width="140" height="30" as="geometry">
            <mxRectangle width="140" height="30" as="alternateBounds" />
          </mxGeometry>
        </mxCell>
        <mxCell id="x2yAiirY8YBwsF6zMrOJ-48" value="" style="shape=tableRow;horizontal=0;startSize=0;swimlaneHead=0;swimlaneBody=0;top=0;left=0;bottom=0;right=0;collapsible=0;dropTarget=0;fillColor=none;points=[[0,0.5],[1,0.5]];portConstraint=eastwest;fontSize=16;labelBackgroundColor=none;" vertex="1" parent="x2yAiirY8YBwsF6zMrOJ-41">
          <mxGeometry y="90" width="180" height="30" as="geometry" />
        </mxCell>
        <mxCell id="x2yAiirY8YBwsF6zMrOJ-49" value="" style="shape=partialRectangle;html=1;whiteSpace=wrap;connectable=0;fillColor=none;top=0;left=0;bottom=0;right=0;overflow=hidden;fontSize=16;labelBackgroundColor=none;" vertex="1" parent="x2yAiirY8YBwsF6zMrOJ-48">
          <mxGeometry width="40" height="30" as="geometry">
            <mxRectangle width="40" height="30" as="alternateBounds" />
          </mxGeometry>
        </mxCell>
        <mxCell id="x2yAiirY8YBwsF6zMrOJ-50" value="Destino" style="shape=partialRectangle;html=1;whiteSpace=wrap;connectable=0;fillColor=none;top=0;left=0;bottom=0;right=0;align=left;spacingLeft=6;overflow=hidden;fontSize=16;labelBackgroundColor=none;" vertex="1" parent="x2yAiirY8YBwsF6zMrOJ-48">
          <mxGeometry x="40" width="140" height="30" as="geometry">
            <mxRectangle width="140" height="30" as="alternateBounds" />
          </mxGeometry>
        </mxCell>
        <mxCell id="x2yAiirY8YBwsF6zMrOJ-51" value="" style="shape=tableRow;horizontal=0;startSize=0;swimlaneHead=0;swimlaneBody=0;top=0;left=0;bottom=0;right=0;collapsible=0;dropTarget=0;fillColor=none;points=[[0,0.5],[1,0.5]];portConstraint=eastwest;fontSize=16;labelBackgroundColor=none;" vertex="1" parent="1">
          <mxGeometry x="50" y="570" width="180" height="30" as="geometry" />
        </mxCell>
        <mxCell id="x2yAiirY8YBwsF6zMrOJ-52" value="" style="shape=partialRectangle;html=1;whiteSpace=wrap;connectable=0;fillColor=none;top=0;left=0;bottom=0;right=0;overflow=hidden;fontSize=16;labelBackgroundColor=none;" vertex="1" parent="x2yAiirY8YBwsF6zMrOJ-51">
          <mxGeometry width="40" height="30" as="geometry">
            <mxRectangle width="40" height="30" as="alternateBounds" />
          </mxGeometry>
        </mxCell>
        <mxCell id="x2yAiirY8YBwsF6zMrOJ-53" value="Tarifa" style="shape=partialRectangle;html=1;whiteSpace=wrap;connectable=0;fillColor=none;top=0;left=0;bottom=0;right=0;align=left;spacingLeft=6;overflow=hidden;fontSize=16;labelBackgroundColor=none;" vertex="1" parent="x2yAiirY8YBwsF6zMrOJ-51">
          <mxGeometry x="40" width="140" height="30" as="geometry">
            <mxRectangle width="140" height="30" as="alternateBounds" />
          </mxGeometry>
        </mxCell>
        <mxCell id="x2yAiirY8YBwsF6zMrOJ-54" value="Paquetes" style="shape=table;startSize=30;container=1;collapsible=0;childLayout=tableLayout;fixedRows=1;rowLines=0;fontStyle=0;fontSize=16;labelBackgroundColor=none;" vertex="1" parent="1">
          <mxGeometry x="250" y="450" width="180" height="210" as="geometry" />
        </mxCell>
        <mxCell id="x2yAiirY8YBwsF6zMrOJ-55" value="" style="shape=tableRow;horizontal=0;startSize=0;swimlaneHead=0;swimlaneBody=0;top=0;left=0;bottom=0;right=0;collapsible=0;dropTarget=0;fillColor=none;points=[[0,0.5],[1,0.5]];portConstraint=eastwest;fontSize=16;labelBackgroundColor=none;" vertex="1" parent="x2yAiirY8YBwsF6zMrOJ-54">
          <mxGeometry y="30" width="180" height="30" as="geometry" />
        </mxCell>
        <mxCell id="x2yAiirY8YBwsF6zMrOJ-56" value="" style="shape=partialRectangle;html=1;whiteSpace=wrap;connectable=0;fillColor=none;top=0;left=0;bottom=0;right=0;overflow=hidden;pointerEvents=1;fontSize=16;labelBackgroundColor=none;" vertex="1" parent="x2yAiirY8YBwsF6zMrOJ-55">
          <mxGeometry width="40" height="30" as="geometry">
            <mxRectangle width="40" height="30" as="alternateBounds" />
          </mxGeometry>
        </mxCell>
        <mxCell id="x2yAiirY8YBwsF6zMrOJ-57" value="Id_Paquete" style="shape=partialRectangle;html=1;whiteSpace=wrap;connectable=0;fillColor=none;top=0;left=0;bottom=0;right=0;align=left;spacingLeft=6;overflow=hidden;fontSize=16;labelBackgroundColor=none;" vertex="1" parent="x2yAiirY8YBwsF6zMrOJ-55">
          <mxGeometry x="40" width="140" height="30" as="geometry">
            <mxRectangle width="140" height="30" as="alternateBounds" />
          </mxGeometry>
        </mxCell>
        <mxCell id="x2yAiirY8YBwsF6zMrOJ-58" value="" style="shape=tableRow;horizontal=0;startSize=0;swimlaneHead=0;swimlaneBody=0;top=0;left=0;bottom=0;right=0;collapsible=0;dropTarget=0;fillColor=none;points=[[0,0.5],[1,0.5]];portConstraint=eastwest;fontSize=16;labelBackgroundColor=none;" vertex="1" parent="x2yAiirY8YBwsF6zMrOJ-54">
          <mxGeometry y="60" width="180" height="30" as="geometry" />
        </mxCell>
        <mxCell id="x2yAiirY8YBwsF6zMrOJ-59" value="" style="shape=partialRectangle;html=1;whiteSpace=wrap;connectable=0;fillColor=none;top=0;left=0;bottom=0;right=0;overflow=hidden;fontSize=16;labelBackgroundColor=none;" vertex="1" parent="x2yAiirY8YBwsF6zMrOJ-58">
          <mxGeometry width="40" height="30" as="geometry">
            <mxRectangle width="40" height="30" as="alternateBounds" />
          </mxGeometry>
        </mxCell>
        <mxCell id="x2yAiirY8YBwsF6zMrOJ-60" value="Contenido" style="shape=partialRectangle;html=1;whiteSpace=wrap;connectable=0;fillColor=none;top=0;left=0;bottom=0;right=0;align=left;spacingLeft=6;overflow=hidden;fontSize=16;labelBackgroundColor=none;" vertex="1" parent="x2yAiirY8YBwsF6zMrOJ-58">
          <mxGeometry x="40" width="140" height="30" as="geometry">
            <mxRectangle width="140" height="30" as="alternateBounds" />
          </mxGeometry>
        </mxCell>
        <mxCell id="x2yAiirY8YBwsF6zMrOJ-61" value="" style="shape=tableRow;horizontal=0;startSize=0;swimlaneHead=0;swimlaneBody=0;top=0;left=0;bottom=0;right=0;collapsible=0;dropTarget=0;fillColor=none;points=[[0,0.5],[1,0.5]];portConstraint=eastwest;fontSize=16;labelBackgroundColor=none;" vertex="1" parent="x2yAiirY8YBwsF6zMrOJ-54">
          <mxGeometry y="90" width="180" height="30" as="geometry" />
        </mxCell>
        <mxCell id="x2yAiirY8YBwsF6zMrOJ-62" value="" style="shape=partialRectangle;html=1;whiteSpace=wrap;connectable=0;fillColor=none;top=0;left=0;bottom=0;right=0;overflow=hidden;fontSize=16;labelBackgroundColor=none;" vertex="1" parent="x2yAiirY8YBwsF6zMrOJ-61">
          <mxGeometry width="40" height="30" as="geometry">
            <mxRectangle width="40" height="30" as="alternateBounds" />
          </mxGeometry>
        </mxCell>
        <mxCell id="x2yAiirY8YBwsF6zMrOJ-63" value="Peso" style="shape=partialRectangle;html=1;whiteSpace=wrap;connectable=0;fillColor=none;top=0;left=0;bottom=0;right=0;align=left;spacingLeft=6;overflow=hidden;fontSize=16;labelBackgroundColor=none;" vertex="1" parent="x2yAiirY8YBwsF6zMrOJ-61">
          <mxGeometry x="40" width="140" height="30" as="geometry">
            <mxRectangle width="140" height="30" as="alternateBounds" />
          </mxGeometry>
        </mxCell>
        <mxCell id="x2yAiirY8YBwsF6zMrOJ-64" value="Id_Cliente" style="shape=partialRectangle;html=1;whiteSpace=wrap;connectable=0;fillColor=none;top=0;left=0;bottom=0;right=0;align=left;spacingLeft=6;overflow=hidden;fontSize=16;labelBackgroundColor=none;" vertex="1" parent="1">
          <mxGeometry x="290" y="570" width="140" height="30" as="geometry">
            <mxRectangle width="140" height="30" as="alternateBounds" />
          </mxGeometry>
        </mxCell>
        <mxCell id="x2yAiirY8YBwsF6zMrOJ-65" value="Seguimiento" style="shape=table;startSize=30;container=1;collapsible=0;childLayout=tableLayout;fixedRows=1;rowLines=0;fontStyle=0;fontSize=16;labelBackgroundColor=none;" vertex="1" parent="1">
          <mxGeometry x="450" y="450" width="180" height="180" as="geometry" />
        </mxCell>
        <mxCell id="x2yAiirY8YBwsF6zMrOJ-66" value="" style="shape=tableRow;horizontal=0;startSize=0;swimlaneHead=0;swimlaneBody=0;top=0;left=0;bottom=0;right=0;collapsible=0;dropTarget=0;fillColor=none;points=[[0,0.5],[1,0.5]];portConstraint=eastwest;fontSize=16;labelBackgroundColor=none;" vertex="1" parent="x2yAiirY8YBwsF6zMrOJ-65">
          <mxGeometry y="30" width="180" height="30" as="geometry" />
        </mxCell>
        <mxCell id="x2yAiirY8YBwsF6zMrOJ-67" value="" style="shape=partialRectangle;html=1;whiteSpace=wrap;connectable=0;fillColor=none;top=0;left=0;bottom=0;right=0;overflow=hidden;pointerEvents=1;fontSize=16;labelBackgroundColor=none;" vertex="1" parent="x2yAiirY8YBwsF6zMrOJ-66">
          <mxGeometry width="40" height="30" as="geometry">
            <mxRectangle width="40" height="30" as="alternateBounds" />
          </mxGeometry>
        </mxCell>
        <mxCell id="x2yAiirY8YBwsF6zMrOJ-68" value="Id_Seguimiento" style="shape=partialRectangle;html=1;whiteSpace=wrap;connectable=0;fillColor=none;top=0;left=0;bottom=0;right=0;align=left;spacingLeft=6;overflow=hidden;fontSize=16;labelBackgroundColor=none;" vertex="1" parent="x2yAiirY8YBwsF6zMrOJ-66">
          <mxGeometry x="40" width="140" height="30" as="geometry">
            <mxRectangle width="140" height="30" as="alternateBounds" />
          </mxGeometry>
        </mxCell>
        <mxCell id="x2yAiirY8YBwsF6zMrOJ-69" value="" style="shape=tableRow;horizontal=0;startSize=0;swimlaneHead=0;swimlaneBody=0;top=0;left=0;bottom=0;right=0;collapsible=0;dropTarget=0;fillColor=none;points=[[0,0.5],[1,0.5]];portConstraint=eastwest;fontSize=16;labelBackgroundColor=none;" vertex="1" parent="x2yAiirY8YBwsF6zMrOJ-65">
          <mxGeometry y="60" width="180" height="30" as="geometry" />
        </mxCell>
        <mxCell id="x2yAiirY8YBwsF6zMrOJ-70" value="" style="shape=partialRectangle;html=1;whiteSpace=wrap;connectable=0;fillColor=none;top=0;left=0;bottom=0;right=0;overflow=hidden;fontSize=16;labelBackgroundColor=none;" vertex="1" parent="x2yAiirY8YBwsF6zMrOJ-69">
          <mxGeometry width="40" height="30" as="geometry">
            <mxRectangle width="40" height="30" as="alternateBounds" />
          </mxGeometry>
        </mxCell>
        <mxCell id="x2yAiirY8YBwsF6zMrOJ-71" value="Id_Paquete" style="shape=partialRectangle;html=1;whiteSpace=wrap;connectable=0;fillColor=none;top=0;left=0;bottom=0;right=0;align=left;spacingLeft=6;overflow=hidden;fontSize=16;labelBackgroundColor=none;" vertex="1" parent="x2yAiirY8YBwsF6zMrOJ-69">
          <mxGeometry x="40" width="140" height="30" as="geometry">
            <mxRectangle width="140" height="30" as="alternateBounds" />
          </mxGeometry>
        </mxCell>
        <mxCell id="x2yAiirY8YBwsF6zMrOJ-72" value="" style="shape=tableRow;horizontal=0;startSize=0;swimlaneHead=0;swimlaneBody=0;top=0;left=0;bottom=0;right=0;collapsible=0;dropTarget=0;fillColor=none;points=[[0,0.5],[1,0.5]];portConstraint=eastwest;fontSize=16;labelBackgroundColor=none;" vertex="1" parent="x2yAiirY8YBwsF6zMrOJ-65">
          <mxGeometry y="90" width="180" height="30" as="geometry" />
        </mxCell>
        <mxCell id="x2yAiirY8YBwsF6zMrOJ-73" value="" style="shape=partialRectangle;html=1;whiteSpace=wrap;connectable=0;fillColor=none;top=0;left=0;bottom=0;right=0;overflow=hidden;fontSize=16;labelBackgroundColor=none;" vertex="1" parent="x2yAiirY8YBwsF6zMrOJ-72">
          <mxGeometry width="40" height="30" as="geometry">
            <mxRectangle width="40" height="30" as="alternateBounds" />
          </mxGeometry>
        </mxCell>
        <mxCell id="x2yAiirY8YBwsF6zMrOJ-74" value="Estado" style="shape=partialRectangle;html=1;whiteSpace=wrap;connectable=0;fillColor=none;top=0;left=0;bottom=0;right=0;align=left;spacingLeft=6;overflow=hidden;fontSize=16;labelBackgroundColor=none;" vertex="1" parent="x2yAiirY8YBwsF6zMrOJ-72">
          <mxGeometry x="40" width="140" height="30" as="geometry">
            <mxRectangle width="140" height="30" as="alternateBounds" />
          </mxGeometry>
        </mxCell>
        <mxCell id="x2yAiirY8YBwsF6zMrOJ-75" value="Ubicacion" style="shape=partialRectangle;html=1;whiteSpace=wrap;connectable=0;fillColor=none;top=0;left=0;bottom=0;right=0;align=left;spacingLeft=6;overflow=hidden;fontSize=16;labelBackgroundColor=none;" vertex="1" parent="1">
          <mxGeometry x="490" y="570" width="140" height="30" as="geometry">
            <mxRectangle width="140" height="30" as="alternateBounds" />
          </mxGeometry>
        </mxCell>
        <mxCell id="x2yAiirY8YBwsF6zMrOJ-76" value="Fecha" style="shape=partialRectangle;html=1;whiteSpace=wrap;connectable=0;fillColor=none;top=0;left=0;bottom=0;right=0;align=left;spacingLeft=6;overflow=hidden;fontSize=16;labelBackgroundColor=none;" vertex="1" parent="1">
          <mxGeometry x="490" y="600" width="140" height="30" as="geometry">
            <mxRectangle width="140" height="30" as="alternateBounds" />
          </mxGeometry>
        </mxCell>
        <mxCell id="x2yAiirY8YBwsF6zMrOJ-77" value="Remitente" style="shape=partialRectangle;html=1;whiteSpace=wrap;connectable=0;fillColor=none;top=0;left=0;bottom=0;right=0;align=left;spacingLeft=6;overflow=hidden;fontSize=16;labelBackgroundColor=none;" vertex="1" parent="1">
          <mxGeometry x="290" y="600" width="140" height="30" as="geometry">
            <mxRectangle width="140" height="30" as="alternateBounds" />
          </mxGeometry>
        </mxCell>
        <mxCell id="x2yAiirY8YBwsF6zMrOJ-78" value="Destinatario" style="shape=partialRectangle;html=1;whiteSpace=wrap;connectable=0;fillColor=none;top=0;left=0;bottom=0;right=0;align=left;spacingLeft=6;overflow=hidden;fontSize=16;labelBackgroundColor=none;" vertex="1" parent="1">
          <mxGeometry x="290" y="630" width="140" height="30" as="geometry">
            <mxRectangle width="140" height="30" as="alternateBounds" />
          </mxGeometry>
        </mxCell>
      </root>
    </mxGraphModel>
  </diagram>
</mxfile>
